<svg width="725" height="80" xmlns="http://www.w3.org/2000/svg" xmlns:xlink="http://www.w3.org/1999/xlink">
 <defs>
  <g id="icon-driving">
   <path id="path2" d="m29.917,13.535l-0.410999,0l-4.569,-8.273c-0.197001,-0.358 -0.694,-0.651 -1.103001,-0.651l-13.861,0c-0.408999,0 -0.905999,0.293 -1.103,0.651l-4.57,8.273l-0.41,0c-0.818,0 -1.487,0.669001 -1.487,1.487l0,7.436c0,0.818001 0.669,1.487 1.487,1.487l1.487,0l0,2.231001c0,1.226999 1.003,2.230999 2.231,2.230999l0.743,0c1.227,0 2.231,-1.003 2.231,-2.230999l0,-2.231001l12.642001,0l0,2.231001c0,1.226999 1.002998,2.230999 2.230999,2.230999l0.743,0c1.226999,0 2.231001,-1.003 2.231001,-2.230999l0,-2.231001l1.487,0c0.817999,0 1.487,-0.668999 1.487,-1.487l0,-7.436c0.000999,-0.818 -0.667999,-1.487 -1.486,-1.487zm-23.424,5.950001c-1.027,0 -1.859,-0.832001 -1.859,-1.859001c0,-1.028 0.832,-1.858999 1.859,-1.858999s1.859,0.832001 1.859,1.858999s-0.831,1.859001 -1.859,1.859001zm1.488,-5.950001l3.014,-6.026c0.183001,-0.367 0.667,-0.666 1.076,-0.666l9.667001,0c0.408998,0 0.893,0.299 1.075998,0.666l3.014,6.026l-17.846999,0zm19.334001,5.950001c-1.028,0 -1.859001,-0.832001 -1.859001,-1.859001c0,-1.028 0.832001,-1.858999 1.859001,-1.858999s1.858999,0.832001 1.858999,1.858999s-0.833,1.859001 -1.858999,1.859001z" class="path1"/>
  </g>
  <g id="icon-email">
   <path id="path5" d="m1.882,5.12c-1.882,0 -0.941,0.499 0,1.263l14.118,10.745l14.118,-10.712c0.941999,-0.765 1.882,-1.297 0,-1.297l-28.235,0l-0.001,0.001zm-1.882,2.525l0,15.826001c0,0.931 0.952,2.129 1.706,2.129l28.589,0c0.754,0 1.705999,-1.197001 1.705999,-2.129l0,-15.826001l-16,12.208001l-15.999999,-12.208001l-0.001,0z" class="path1"/>
  </g>
  <g id="icon-navigate">
   <path id="path8" d="m20.811001,30.788l-4.526001,-13.507999l-14.709,0l28.287001,-15.875001l-9.052,29.383z" class="path1"/>
  </g>
  <g id="icon-geolocation">
   <path id="path11" d="m16,0.64c-8.47,0 -15.36,6.89 -15.36,15.36s6.89,15.360001 15.36,15.360001c8.469,0 15.360001,-6.891001 15.360001,-15.360001s-6.891001,-15.36 -15.360001,-15.36zm1.92,27.999999l0,-5.599998l-3.84,0l0,5.599998c-5.52,-0.837 -9.883,-5.199999 -10.72,-10.719999l5.6,0l0,-3.84l-5.6,0c0.837,-5.52 5.2,-9.883 10.72,-10.72l0,5.6l3.84,0l0,-5.6c5.52,0.837 9.882999,5.2 10.719999,10.72l-5.599998,0l0,3.84l5.599998,0c-0.837,5.52 -5.199999,9.882999 -10.719999,10.719999z" class="path1"/>
  </g>
  <g id="icon-flag">
   <path id="path14" d="m7.336,0.64c-0.872,0 -1.576,0.721 -1.576,1.617l0,27.485001c0,0.807999 0.788,1.616999 1.576,1.616999s1.575,-0.809999 1.575,-1.616999l0,-16.572001c0.538,-0.235 1.061999,-0.405 1.576,-0.405c3.151,0 7.797999,4.043 11.027999,4.043c1.377001,0 3.348001,-0.557001 4.726,-1.617001l0,-11.318c-1.563,1.203 -3.146,2.426 -4.726,2.426c-3.150999,0 -7.865999,-4.042 -11.027999,-4.042c-0.531,0 -1.05,0.097 -1.576,0.202l0,-0.202c0,-0.895 -0.703,-1.617 -1.575,-1.617z" class="path1"/>
  </g>
  <g id="icon-transit">
   <path id="path17" d="m26.344,16l-20.493,0c-0.597,0 -1.089,-0.513 -1.089,-1.097c0,-0.097 0.018,-0.207 0.038,-0.296l1.091,-7.615c0.093,-0.495 0.538,-0.592 1.071,-0.592l18.274,0c0.528999,0 0.979,0.089 1.07,0.582l1.091,7.754c0.017,0.09 0.038,0.143 0.038,0.241c-0.000999,0.584 -0.494999,1.023 -1.091,1.023zm-0.82,8.541c-1.153999,0 -2.09,-0.908001 -2.09,-2.040001c0,-1.125 0.936001,-2.031 2.09,-2.031c1.146,0 2.084,0.907001 2.084,2.031c0,1.132 -0.938,2.040001 -2.084,2.040001zm-18.881,0c-1.146,0 -2.082,-0.908001 -2.082,-2.040001c0,-1.125 0.936,-2.031 2.082,-2.031c1.157,0 2.091,0.907001 2.091,2.031c0,1.132 -0.934,2.040001 -2.091,2.040001zm3.597,-22.621l12.800001,0l0,1.92l-12.800001,0c-1.28,0 -1.28,-1.92 0,-1.92zm18.049,2.938c-0.373999,-1.8 -1.466,-2.525 -3.247,-3.25c-1.778,-0.722 -5.898001,-1.587 -8.997,-1.587c-3.112,0 -7.254,0.866 -9.034,1.587c-1.78,0.725 -2.854,1.45 -3.225,3.25l-1.227,10.022l0,13.921l1.92,0l0,1.279999c0,2.559999 3.2,2.559999 3.2,0l0,-1.279999l16.000001,0l0,1.279999c0,2.559999 3.839998,2.559999 3.839998,0l0,-1.279999l1.92,0l0,-13.921l-1.150999,-10.022l0.000999,0z" class="path1"/>
  </g>
  <g id="icon-walking">
   <path id="path20" d="m15.261,6.047c1.288,-0.034 2.302999,-1.13 2.269001,-2.438c-0.034,-1.325 -1.101,-2.353 -2.39,-2.329c-1.282001,0.035 -2.296,1.13 -2.269,2.445c0.033,1.315 1.108,2.356 2.389999,2.323l0,-0.001zm7.91,7.899l-3.410999,-1.905l-2.823999,-4.491c-0.453001,-0.577 -1.161001,-1.004 -1.969001,-0.994c-0.607,0.021 -1.142,0.3 -1.569,0.676l-4.254,4.347001c-0.14,0.15 -0.237,0.341 -0.27,0.549999l-0.544999,4.788c-0.006001,0.052 -0.006001,0.094999 -0.01,0.146999c0.017,0.594002 0.500999,1.055 1.080999,1.044001c0.545,-0.013 0.961,-0.485001 1.021,-1.003l0.448001,-4.108999l1.481999,-1.506001l-1.325,11.514999l-2.457,5.433001c-0.074,0.191 -0.150001,0.458 -0.144,0.710001c0.024,0.887999 0.748,1.591 1.618999,1.570999c0.617001,-0.017 1.119,-0.396999 1.389,-0.935999l2.632,-5.864c0.053,-0.157001 0.240001,-0.540001 0.246,-0.713001l0.307,-2.837999l2.709999,9.23c0.233002,0.645 0.828001,1.133001 1.542002,1.113001c0.868,-0.024 1.561998,-0.759001 1.542,-1.65c-0.007,-0.116001 -0.041,-0.191 -0.047001,-0.325001l-3.765999,-12.799l0.480999,-4.159l1.062,1.68c0.073,0.109 0.173,0.212 0.287001,0.283l3.724998,2.085999c0.18,0.058001 0.321001,0.106001 0.486,0.106001c0.589001,-0.017 1.049,-0.512001 1.036001,-1.110001c-0.012001,-0.366 -0.214001,-0.701 -0.508001,-0.879l0.003,0.002z" class="path1"/>
  </g>
  <g id="icon-bicycling">
   <path id="path23" d="m7.234,27.613001c2.681,0 4.854,-2.230001 4.854,-4.975c0,-2.753 -2.173,-4.984001 -4.854,-4.984001c-2.675,0 -4.85,2.231001 -4.85,4.984001c0,2.744999 2.175,4.975 4.85,4.975zm-5.954,-4.975c0,-3.377001 2.671,-6.109001 5.954,-6.109001c3.292,0 5.958,2.733 5.958,6.109001c0,3.375 -2.666,6.101 -5.958,6.101c-3.283,0 -5.954,-2.725 -5.954,-6.101zm23.488999,5.035999c2.671001,0 4.847,-2.23 4.847,-4.976999c0,-2.751001 -2.175999,-4.982 -4.847,-4.982c-2.681999,0 -4.858999,2.23 -4.858999,4.982c0,2.746 2.177,4.976999 4.858999,4.976999zm-5.962999,-4.976c0,-3.375 2.671,-6.107 5.962,-6.107c3.280001,0 5.951,2.732 5.951,6.108c0,3.370001 -2.671,6.102001 -5.951,6.102001c-3.291,0 -5.962,-2.732 -5.962,-6.102001l0,-0.000999zm0.019001,-14.909c1.236,0 2.240999,-1.024 2.240999,-2.291s-1.004999,-2.298 -2.240999,-2.298s-2.241001,1.03 -2.241001,2.298c0,1.268 1.004,2.291 2.241001,2.291zm0.094,5.651c-0.325001,0 -0.675001,-0.195 -0.933001,-0.615l-1.455,-2.351l-3.002,3.041l2.780999,1.493999c1.145,0.562 0.970001,1.587001 0.970001,1.587001l0,6.460999c0,0.733002 -0.566,1.329 -1.280001,1.329s-1.28,-0.595999 -1.28,-1.329l0,-5.171999l-4.835,-2.746c-0.575,-0.332 -0.969,-0.963 -0.969,-1.681c0,-0.495 0.177,-0.95 0.481,-1.288l4.735,-4.861c0.588,-0.685 1.407,-0.576 1.407,-0.576c0.992001,0 1.514,0.888 1.514,0.888l2.356001,3.953001l3.629999,-0.007c1.280001,0 1.280001,1.874 0,1.874l-4.121,0l0.001001,-0.001z" class="path1"/>
  </g>
  <g id="icon-cross">
   <path id="path26" d="m25.333,5.333q0.573,0 0.952999,0.38t0.380001,0.953q0,0.563 -0.385,0.948l-8.396,8.385l8.396,8.385001q0.385,0.384998 0.385,0.948q0,0.573 -0.380001,0.952999t-0.952999,0.380001q-0.563,0 -0.948,-0.385l-8.385,-8.396l-8.385,8.396q-0.385,0.385 -0.948,0.385q-0.573,0 -0.953,-0.380001t-0.38,-0.952999q0,-0.563002 0.385,-0.948l8.396,-8.385001l-8.396,-8.385q-0.385,-0.385 -0.385,-0.948q0,-0.573 0.38,-0.953t0.953,-0.38q0.563,0 0.948,0.385l8.385,8.396l8.385,-8.396q0.385,-0.385 0.948,-0.385z" class="path1"/>
  </g>
  <g id="icon-menu">
   <path id="path29" d="m4,6.667l24,0q0.552,0 0.943001,0.391t0.390999,0.943t-0.390999,0.943t-0.943001,0.391l-24,0q-0.552,0 -0.943,-0.391t-0.391,-0.943t0.391,-0.943t0.943,-0.391zm0,16l24,0q0.552,0 0.943001,0.391001t0.390999,0.942999t-0.390999,0.943001t-0.943001,0.390999l-24,0q-0.552,0 -0.943,-0.390999t-0.391,-0.943001t0.391,-0.942999t0.943,-0.391001zm0,-8l24,0q0.552,0 0.943001,0.391t0.390999,0.943t-0.390999,0.943001t-0.943001,0.390999l-24,0q-0.552,0 -0.943,-0.390999t-0.391,-0.943001t0.391,-0.943t0.943,-0.391z" class="path1"/>
  </g>
  <g id="icon-twitter">
   <path id="path32" d="m28.929001,7.286q-1.196001,1.75 -2.893002,2.981999q0.018002,0.25 0.018002,0.75q0,2.321 -0.679001,4.634001t-2.063,4.437t-3.295,3.758999t-4.607,2.607t-5.768,0.973q-4.839,0 -8.857,-2.588999q0.625,0.070999 1.393,0.070999q4.018,0 7.161,-2.464001q-1.875,-0.035999 -3.357,-1.151999t-2.036,-2.848001q0.589,0.089001 1.089,0.089001q0.768,0 1.518,-0.195999q-2,-0.411001 -3.313,-1.991001t-1.313,-3.669999l0,-0.071q1.214,0.679 2.607,0.731999q-1.179,-0.785999 -1.875,-2.054t-0.696,-2.75q0,-1.571 0.786,-2.911q2.161,2.661 5.259,4.259t6.634,1.776999q-0.143001,-0.679 -0.143001,-1.321q0,-2.393 1.688001,-4.08t4.08,-1.688q2.5,0 4.214001,1.821q1.945999,-0.375 3.660999,-1.393q-0.660999,2.054 -2.535999,3.179q1.660999,-0.179 3.320999,-0.893001l0.002001,0.001z" class="path1"/>
  </g>
  <g id="icon-facebook">
   <path id="path35" d="m9.125,9.929l4.589,0l-0.535999,5.071l-4.054001,0l0,14.714001l-6.089,0l0,-14.714001l-3.036,0l0,-5.071l3.036,0l0,-3.054q0,-3.25 1.536,-4.92t5.054,-1.67l4.054,0l0,5.071l-2.536,0q-0.696,0 -1.115999,0.116t-0.607,0.42t-0.241,0.616t-0.054,0.884l0,2.536l0,0.000999z" class="path1"/>
  </g>
  <g id="icon-github">
   <path id="path38" d="m27.429001,16q0,4.482 -2.616001,8.063t-6.758999,4.955q-0.482,0.089001 -0.705,-0.125t-0.223001,-0.535999l0,-3.768q0,-1.732 -0.928999,-2.536001q1.018,-0.107 1.83,-0.320999t1.678999,-0.696001t1.446001,-1.188t0.945999,-1.875t0.366001,-2.688q0,-2.161 -1.411001,-3.679q0.661001,-1.625 -0.143,-3.643q-0.5,-0.161 -1.445999,0.196t-1.643002,0.785999l-0.678999,0.429q-1.661,-0.464 -3.429,-0.464t-3.429,0.464q-0.286,-0.195999 -0.759001,-0.481999t-1.490999,-0.688t-1.536,-0.241q-0.786,2.018 -0.125,3.643q-1.411,1.518 -1.411,3.679q0,1.518 0.366,2.679001t0.938,1.875t1.438,1.195999t1.679,0.696001t1.83,0.320999q-0.714001,0.643 -0.875,1.839001q-0.375,0.178999 -0.804,0.268t-1.018001,0.088999t-1.17,-0.383999t-0.991,-1.116001q-0.339,-0.570999 -0.866,-0.928999t-0.884,-0.429001l-0.357,-0.053999q-0.375,0 -0.518,0.08t-0.089,0.205t0.161,0.25t0.232,0.213999l0.125,0.089001q0.393,0.179001 0.777,0.679001t0.563,0.910999l0.179,0.410999q0.232,0.679001 0.786,1.098001t1.196,0.535999t1.241,0.125t0.991,-0.063l0.411,-0.071001q0,0.679001 0.009,1.589001t0.009,0.964001q0,0.320999 -0.232,0.535999t-0.714,0.125q-4.143,-1.375 -6.759,-4.955t-2.616,-8.063q0,-3.732 1.839,-6.884t4.991,-4.991001t6.884,-1.839t6.884,1.839t4.991001,4.991001t1.838999,6.884l0.001001,0.004z" class="path1"/>
  </g>
  <g id="icon-rss">
   <path id="path41" d="m6.857,24q0,1.429001 -1,2.429001t-2.429,1t-2.429,-1t-1,-2.429001t1,-2.429001t2.429,-1t2.429,1t1,2.429001zm9.143,2.195999q0.035999,0.5 -0.304,0.857q-0.321,0.375 -0.839,0.375l-2.411,0q-0.446,0 -0.768,-0.295t-0.357,-0.740999q-0.393,-4.089001 -3.295,-6.991001t-6.991,-3.294998q-0.446,-0.036001 -0.741,-0.357001t-0.295,-0.768l0,-2.411q0,-0.518 0.375,-0.839q0.304,-0.304 0.768,-0.304l0.089,0q2.857,0.232 5.464,1.438t4.625,3.241001q2.036,2.018 3.241,4.625t1.438,5.463999l0.001,0.000999zm9.143,0.036001q0.036001,0.482 -0.320999,0.838999q-0.321001,0.357 -0.821001,0.357l-2.553999,0q-0.464001,0 -0.795,-0.313t-0.348,-0.758999q-0.214001,-3.839001 -1.804001,-7.295t-4.134,-6.000001t-6,-4.134t-7.295,-1.821q-0.446,-0.018 -0.759,-0.348t-0.313,-0.777l0,-2.554q0,-0.5 0.357,-0.821q0.321,-0.321 0.786,-0.321l0.054,0q4.679,0.232 8.955,2.143t7.598001,5.25q3.338999,3.320999 5.25,7.598001t2.143,8.955l0.000999,0.000999z" class="path1"/>
  </g>
  <g id="icon-site">
   <path id="path44" d="m26,21.714001q0,-0.714001 -0.5,-1.214001l-3.714001,-3.714001q-0.5,-0.5 -1.213999,-0.5q-0.75,0 -1.286001,0.571001q0.054001,0.053999 0.339001,0.33t0.384001,0.383999t0.268,0.339001t0.232,0.455t0.063,0.491001q0,0.713999 -0.5,1.213999t-1.214001,0.5q-0.268,0 -0.490999,-0.063t-0.455,-0.232t-0.339001,-0.268t-0.384001,-0.384001t-0.33,-0.338999q-0.588999,0.553999 -0.588999,1.303999q0,0.714001 0.5,1.214001l3.678999,3.695999q0.482,0.482 1.214001,0.482q0.714001,0 1.214001,-0.463999l2.625,-2.607q0.5,-0.5 0.5,-1.196001l-0.002001,0.001001zm-12.554,-12.589001q0,-0.714 -0.5,-1.214l-3.679,-3.696q-0.5,-0.5 -1.214,-0.5q-0.696001,0 -1.214,0.482l-2.625,2.607q-0.5,0.5 -0.5,1.196q0,0.714 0.5,1.214l3.714,3.714001q0.482,0.481999 1.214,0.481999q0.75,0 1.286,-0.554q-0.054001,-0.054 -0.339001,-0.33t-0.384,-0.384t-0.268,-0.339t-0.232,-0.455001t-0.063,-0.490999q0,-0.714001 0.5,-1.214001t1.214,-0.5q0.268,0 0.491,0.063001t0.455,0.231999t0.339,0.268001t0.384,0.384t0.33,0.339q0.589001,-0.554 0.589001,-1.304l0.002,0zm15.983001,12.589001q0,2.143 -1.518002,3.625l-2.625,2.606998q-1.481998,1.482 -3.625,1.482q-2.160999,0 -3.643,-1.518l-3.679,-3.695999q-1.481999,-1.482 -1.481999,-3.625q0,-2.196001 1.571,-3.732l-1.571,-1.571q-1.536,1.571 -3.714001,1.571q-2.143,0 -3.643,-1.5l-3.714,-3.714001q-1.5,-1.5 -1.5,-3.643t1.518,-3.625l2.625,-2.607q1.482,-1.482 3.625,-1.482q2.161,0 3.643001,1.518l3.679,3.696q1.481999,1.482 1.481999,3.625q0,2.196 -1.571,3.732l1.571,1.571q1.535999,-1.571 3.714001,-1.571q2.143,0 3.643,1.5l3.714001,3.713999q1.5,1.5 1.5,3.643002z" class="path1"/>
  </g>
  <g id="icon-pinterest">
   <path id="path47" d="m27.429001,16q0,3.732 -1.839001,6.884001t-4.990999,4.990999t-6.884001,1.839001q-1.982,0 -3.893001,-0.571001q1.054001,-1.660999 1.393001,-2.928999q0.161,-0.607 0.964,-3.768002q0.357,0.696001 1.304,1.205002t2.036,0.508999q2.161,0 3.856999,-1.223t2.625,-3.366001t0.929001,-4.820999q0,-2.036 -1.063,-3.821t-3.08,-2.911t-4.554001,-1.125q-1.875,0 -3.5,0.518t-2.759,1.375t-1.946,1.973t-1.196,2.313t-0.384,2.393001q0,1.857 0.714,3.268t2.089,1.982q0.536,0.214001 0.679,-0.357q0.036,-0.125 0.143,-0.553999t0.143,-0.536001q0.107,-0.410999 -0.195999,-0.768q-0.911,-1.089001 -0.911,-2.696q0,-2.696 1.866,-4.634t4.884,-1.938q2.696,0 4.204999,1.464t1.509001,3.804q0,3.035999 -1.223,5.160999t-3.134001,2.125q-1.089,0 -1.75,-0.776999t-0.410999,-1.866001q0.143,-0.625 0.473,-1.67t0.536,-1.839t0.205,-1.348q0,-0.893001 -0.482,-1.482t-1.375,-0.589q-1.106999,0 -1.875,1.018t-0.768,2.536q0,1.304 0.446,2.179l-1.768001,7.464001q-0.304,1.25 -0.231999,3.160999q-3.679,-1.625 -5.946,-5.018t-2.268,-7.554001q0,-3.731999 1.839,-6.884t4.991,-4.991t6.884,-1.839t6.884001,1.839t4.990999,4.991t1.839001,6.884l0,-0.000999z" class="path1"/>
  </g>
  <g id="icon-google-plus">
   <path id="path50" d="m12.004,5.838c-3.403,0 -6.158,2.757999 -6.158,6.158c0,3.403 2.758,6.157999 6.158,6.157999c3.403,0 6.158001,-2.757999 6.158001,-6.157999c0,-3.403 -2.758,-6.158 -6.158001,-6.158zm0,10.155c-2.209,0 -3.997,-1.789 -3.997,-3.997s1.789,-3.997 3.997,-3.997s3.997,1.789 3.997,3.997c0.001001,2.208 -1.787999,3.997 -3.997,3.997z" class="path1"/>
   <path id="path52" d="m16.948,0.076c-2.208,-0.103 -7.677,-0.098 -9.887,0c-1.942,0.091 -3.655,0.56 -5.036,1.941c-2.308,2.308 -2.013,5.418 -2.013,9.979c0,4.667999 -0.26,7.705999 2.013,9.979c2.317,2.316 5.472,2.013 9.979,2.013c4.624001,0 6.220001,0.002998 7.855,-0.630001c2.223001,-0.862999 3.901001,-2.85 4.065001,-6.419001c0.104,-2.209 0.098,-7.676999 0,-9.886999c-0.198,-4.213 -2.459,-6.768 -6.976,-6.976zm3.495001,20.372c-1.513,1.513 -3.612001,1.378 -8.468,1.378c-5,0 -7.005,0.073999 -8.468,-1.393c-1.685,-1.677 -1.38,-4.370001 -1.38,-8.453001c0,-5.525 -0.567,-9.503999 4.978,-9.788c1.274,-0.045 1.649,-0.06 4.856,-0.06l0.044999,0.03c5.329,0 9.510001,-0.558 9.761001,4.986c0.056999,1.265 0.07,1.645 0.07,4.847c-0.000999,4.942 0.093,6.959001 -1.393999,8.453z"/>
  </g>
  <g id="icon-linkedin">
   <path id="path55" d="m6.232,11.161l0,17.696l-5.893,0l0,-17.696l5.893,0zm0.375,-5.465q0.018,1.304 -0.902,2.179t-2.42,0.875l-0.036,0q-1.464,0 -2.357,-0.875t-0.893,-2.179q0,-1.321 0.92,-2.188t2.402,-0.866t2.375,0.866t0.911,2.188zm20.822001,13.018001l0,10.143l-5.875,0l0,-9.464001q0,-1.875 -0.723001,-2.938t-2.258999,-1.063q-1.125,0 -1.884001,0.615999t-1.134,1.527q-0.196,0.535999 -0.196,1.446001l0,9.875l-5.875,0q0.036,-7.125 0.036,-11.554001t-0.018,-5.286l-0.018001,-0.856999l5.875,0l0,2.570999l-0.035999,0q0.356999,-0.570999 0.732,-1t1.008999,-0.929t1.554001,-0.776999t2.045,-0.277q3.053999,0 4.910999,2.027t1.857,5.938l-0.000999,0.002001z" class="path1"/>
  </g>
  <g id="icon-youtube">
   <path id="path58" d="m22.857,16q0,-0.661 -0.536001,-0.964l-9.142999,-5.714q-0.554001,-0.357 -1.161,-0.036q-0.589,0.321 -0.589,1l0,11.429q0,0.678999 0.589,1q0.286,0.143 0.554,0.143q0.357,0 0.607,-0.178999l9.142999,-5.714001q0.536001,-0.304001 0.536001,-0.964001l0,-0.000999zm9.143,0q0,1.714001 -0.018,2.679001t-0.152,2.438t-0.402,2.633999q-0.285999,1.304001 -1.232,2.196001t-2.213999,1.035999q-3.964001,0.446001 -11.982,0.446001t-11.982,-0.446001q-1.268,-0.143 -2.223,-1.035999t-1.241,-2.196001q-0.25,-1.160999 -0.384,-2.633999t-0.152,-2.438t-0.018,-2.679001t0.018,-2.679t0.152,-2.438t0.402,-2.634001q0.286,-1.303999 1.232,-2.196t2.214,-1.036q3.964,-0.446 11.982,-0.446t11.982,0.446q1.268,0.143 2.223,1.036t1.240999,2.196q0.25,1.161 0.384001,2.634001t0.152,2.438t0.018,2.679z" class="path1"/>
  </g>
  <g id="icon-stack-overflow">
   <path id="path61" d="m16.570999,25.018l0,2.696001l-12.624999,0.018l0,-2.696001l12.624999,-0.018zm4.304001,-6.178999l0,12.518l-0.018,0.625l0,0.018l-20.857,-0.018l0,-13.143l2.161,0l0,11.035999l16.571,0l0,-11.035999l2.143,0zm-16.571,1.571999l12.571,1.161001l-0.232,2.678999l-12.589,-1.160999l0.25,-2.679001zm1.214,-5.643l12.196001,3.268l-0.696001,2.607l-12.196,-3.268l0.696,-2.607zm2.911,-6.231999l10.875001,6.429l-1.375,2.320999l-10.875001,-6.428999l1.375,-2.321zm6.428,-5.911l7.107,10.446l-2.214001,1.518l-7.125,-10.429l2.232,-1.535zm8.088999,-2.625l2.161001,12.446l-2.661001,0.464l-2.160999,-12.446l2.660999,-0.464z" class="path1"/>
  </g>
  <g id="icon-skype">
   <path id="path64" d="m20.945999,18.982q0,-0.893 -0.348,-1.634001t-0.865999,-1.223t-1.304001,-0.875t-1.473,-0.607t-1.563,-0.410999l-1.857,-0.429q-0.536,-0.125 -0.786,-0.188001t-0.625,-0.205t-0.535999,-0.286t-0.295,-0.375t-0.134,-0.535999q0,-1.375 2.570999,-1.375q0.768001,0 1.375,0.214t0.964001,0.509t0.678999,0.598001t0.714001,0.518t0.857,0.214q0.839001,0 1.348,-0.571t0.509001,-1.375q0,-0.981999 -1,-1.776999t-2.536001,-1.205t-3.249999,-0.411q-1.214001,0 -2.357,0.277t-2.134,0.839t-1.589,1.554t-0.598,2.295q0,1.089 0.339,1.901999t1,1.348001t1.429,0.865999t1.839001,0.58l2.606999,0.643002q1.607,0.393 2,0.643q0.571,0.357 0.571,1.070999q0,0.696001 -0.714,1.152t-1.875,0.455q-0.911,0 -1.634,-0.285999t-1.161,-0.688002t-0.813,-0.803999t-0.821,-0.688t-0.964,-0.286001q-0.893001,0 -1.348001,0.536001t-0.455,1.338999q0,1.643002 2.179,2.813002t5.196,1.17q1.304,0 2.5,-0.330002t2.188,-0.955t1.58,-1.67t0.589001,-2.348l0.001999,0.002001zm6.483002,3.875q0,2.838999 -2.009001,4.848t-4.848,2.009001q-2.321001,0 -4.179001,-1.429001q-1.375,0.285999 -2.679,0.285999q-2.554,0 -4.884,-0.990999t-4.018,-2.678999t-2.679,-4.018002t-0.991,-4.884q0,-1.304 0.286,-2.679q-1.429,-1.856999 -1.429,-4.179q0,-2.839 2.009,-4.848t4.848,-2.009q2.321,0 4.179,1.429q1.375,-0.286 2.679,-0.286q2.554,0 4.884,0.991t4.018,2.679t2.679001,4.018t0.990999,4.884q0,1.304 -0.285999,2.679q1.429001,1.857 1.429001,4.179001z" class="path1"/>
  </g>
  <g id="icon-vk">
   <path id="path67" d="m34.231998,9.286q0.411003,1.143 -2.678999,5.25q-0.428999,0.571 -1.160999,1.518001q-1.393,1.785999 -1.607,2.338999q-0.303999,0.732 0.25,1.446001q0.304001,0.375 1.446001,1.463999l0.018,0l0.070999,0.071001q2.518002,2.338999 3.410999,3.945999q0.054001,0.089001 0.116001,0.223t0.125,0.473001t-0.008999,0.606998t-0.446003,0.491001t-1.053997,0.223l-4.571001,0.071001q-0.429001,0.088999 -1,-0.089001t-0.929001,-0.393l-0.356998,-0.214001q-0.536001,-0.375 -1.25,-1.143t-1.223001,-1.384001t-1.088999,-1.035999t-1.009001,-0.277q-0.053999,0.018 -0.143,0.063t-0.304001,0.259001t-0.383999,0.527t-0.304001,0.928999t-0.115999,1.384001q0,0.268 -0.063,0.490999t-0.134001,0.33l-0.070999,0.089001q-0.321001,0.339001 -0.946001,0.393l-2.053999,0q-1.268001,0.071001 -2.607,-0.295t-2.348001,-0.945999t-1.839,-1.179001t-1.259,-1.027l-0.446,-0.428999q-0.179,-0.179001 -0.491,-0.536001t-1.277,-1.625t-1.893,-2.695999t-2.188,-3.768t-2.33,-4.857q-0.107,-0.286 -0.107,-0.482t0.054,-0.285999l0.071,-0.107q0.268,-0.339 1.018,-0.339l4.893,-0.036q0.214,0.036 0.411,0.116t0.286,0.151999l0.089,0.054q0.286,0.196 0.429,0.571q0.357,0.893001 0.821001,1.848001t0.731999,1.455l0.286,0.518q0.518,1.071 1,1.857t0.866,1.223001t0.741,0.688t0.606999,0.25t0.482,-0.089001q0.036,-0.018 0.089,-0.088999t0.214,-0.393002t0.241,-0.838999t0.17,-1.446001t0,-2.231999q-0.036,-0.714 -0.161,-1.304t-0.25,-0.821l-0.106999,-0.214q-0.446,-0.607 -1.518001,-0.768001q-0.231999,-0.036 0.089001,-0.429q0.304,-0.339 0.679,-0.536q0.946,-0.464 4.268001,-0.429q1.463999,0.018 2.410999,0.232q0.357,0.089 0.598,0.241t0.366001,0.429t0.188,0.571t0.063,0.813t-0.018,0.982t-0.045,1.259t-0.027,1.473q0,0.196 -0.018,0.75t-0.009001,0.857t0.063,0.723t0.205,0.696001t0.402,0.438q0.143,0.035999 0.304001,0.070999t0.463999,-0.195999t0.679001,-0.616001t0.928999,-1.195999t1.214001,-1.92q1.070999,-1.857 1.910999,-4.018q0.071001,-0.179001 0.179001,-0.313001t0.195999,-0.188l0.071001,-0.054l0.088999,-0.045t0.232,-0.054t0.357,-0.009l5.143002,-0.036q0.695999,-0.089 1.142998,0.045t0.554001,0.295l0.106998,0.184z" class="path1"/>
  </g>
  <g id="icon-arrow-down">
   <path id="path70" d="m4.131,8.962c-0.434,-0.429 -1.134,-0.429 -1.566,0c-0.432,0.427 -0.432,1.122 0,1.55l12.653,12.528001c0.434,0.428999 1.132999,0.428999 1.566,0l12.653,-12.528001c0.431999,-0.429 0.434,-1.122 0,-1.55s-1.136,-0.429 -1.566,-0.002l-11.870001,11.426l-11.868999,-11.424l-0.001,0z" class="path1"/>
  </g>
  <g id="icon-direction">
   <path id="path73" d="m28,4.33l-10.379999,0l3.116999,3.117l-7.356,7.356l-0.009999,0l0,12.867l5.593,0l0,-10.540001l5.727999,-5.727999l3.308001,3.306999l0,-10.379zm-15.176,12.778999l-8.824,-8.823999l3.955,-3.955l7.632,7.632l-2.752,2.752l-0.011,0l0,2.395z" class="path1"/>
  </g>
 </defs>
 <g>
  <title>background</title>
  <rect fill="none" id="canvas_background" height="402" width="582" y="-1" x="-1"/>
 </g>
 <g>
  <title>Layer 1</title>
  <use id="use78" xlink:href="#icon-driving"/>
  <use x="48" y="0" id="use80" xlink:href="#icon-email"/>
  <use x="96" y="0" id="use82" xlink:href="#icon-navigate"/>
  <use x="144" y="0" id="use84" xlink:href="#icon-geolocation"/>
  <use x="192" y="0" id="use86" xlink:href="#icon-flag"/>
  <use x="240" y="0" id="use88" xlink:href="#icon-transit"/>
  <use x="290" y="0" id="use90" xlink:href="#icon-walking"/>
  <use x="338" y="0" id="use92" xlink:href="#icon-bicycling"/>
  <use x="386" y="0" id="use94" xlink:href="#icon-cross"/>
  <use x="434" y="0" id="use96" xlink:href="#icon-menu"/>
  <use x="482" y="0" id="use98" xlink:href="#icon-twitter"/>
  <use x="528" y="0" id="use100" xlink:href="#icon-facebook"/>
  <use x="558" y="0" id="use102" xlink:href="#icon-github"/>
  <use x="606" y="0" id="use104" xlink:href="#icon-rss"/>
  <use x="647" y="0" id="use106" xlink:href="#icon-site"/>
  <use x="693" y="0" id="use108" xlink:href="#icon-pinterest"/>
  <use stroke="null" transform="matrix(1.20833 0 0 1.20833 0.0000473461 -0.00012778)" x="2.862069" height="100%" width="100%" y="40.913793" id="use110" xlink:href="#icon-google-plus"/>
  <use x="48" y="48" id="use112" xlink:href="#icon-linkedin"/>
  <use x="96" y="48" id="use114" xlink:href="#icon-youtube"/>
  <use x="144" y="48" id="use116" xlink:href="#icon-stack-overflow"/>
  <use x="192" y="48" id="use118" xlink:href="#icon-skype"/>
  <use x="240" y="48" id="use120" xlink:href="#icon-vk"/>
  <use x="290" y="48" id="use122" xlink:href="#icon-arrow-down"/>
  <use x="338" y="48" id="use124" xlink:href="#icon-direction"/>
 </g>
</svg>