<?xml version="1.0" encoding="UTF-8" standalone="no"?>
<svg
   fill="#000000"
   viewBox="0 0 24 24"
   width="48px"
   height="48px"
   version="1.1"
   id="svg89"
   sodipodi:docname="icons8-instagram.svg"
   inkscape:version="1.1 (c68e22c387, 2021-05-23)"
   xmlns:inkscape="http://www.inkscape.org/namespaces/inkscape"
   xmlns:sodipodi="http://sodipodi.sourceforge.net/DTD/sodipodi-0.dtd"
   xmlns="http://www.w3.org/2000/svg"
   xmlns:svg="http://www.w3.org/2000/svg">
  <defs
     id="defs93" />
  <sodipodi:namedview
     id="namedview91"
     pagecolor="#ffffff"
     bordercolor="#666666"
     borderopacity="1.0"
     inkscape:pageshadow="2"
     inkscape:pageopacity="0.0"
     inkscape:pagecheckerboard="0"
     showgrid="false"
     inkscape:zoom="16.458333"
     inkscape:cx="24.03038"
     inkscape:cy="38.582279"
     inkscape:window-width="1920"
     inkscape:window-height="986"
     inkscape:window-x="-11"
     inkscape:window-y="-11"
     inkscape:window-maximized="1"
     inkscape:current-layer="svg89" />
  <path
     d="m -2.4421943,6.6759491 c -3.264195,0 -5.9198311,2.6745659 -5.9198311,5.9620269 v 9.539242 c 0,3.28746 2.6556361,5.962025 5.9198311,5.962025 h 9.4717308 c 3.2641955,0 5.9198325,-2.674565 5.9198325,-5.962025 v -9.539242 c 0,-3.287461 -2.655637,-5.9620269 -5.9198325,-5.9620269 z m 0,2.3848109 h 9.4717308 c 1.9582804,0 3.5518995,1.604978 3.5518995,3.577216 v 9.539242 c 0,1.972238 -1.5936191,3.577215 -3.5518995,3.577215 h -9.4717308 c -1.9582802,0 -3.5518986,-1.604977 -3.5518986,-3.577215 v -9.539242 c 0,-1.972238 1.5936184,-3.577216 3.5518986,-3.577216 z m 10.6556962,1.192406 a 1.1839662,1.192405 0 0 0 -1.1839654,1.192405 1.1839662,1.192405 0 0 0 1.1839654,1.192405 1.1839662,1.192405 0 0 0 1.183968,-1.192405 1.1839662,1.192405 0 0 0 -1.183968,-1.192405 z m -5.9198314,1.192405 c -3.26419452,0 -5.9198311,2.674566 -5.9198311,5.962027 0,3.28746 2.65563658,5.962025 5.9198311,5.962025 3.264196,0 5.9198314,-2.674565 5.9198314,-5.962025 0,-3.287461 -2.6556354,-5.962027 -5.9198314,-5.962027 z m 0,2.384811 c 1.95828,0 3.5519,1.604978 3.5519,3.577216 0,1.972238 -1.59362,3.577215 -3.5519,3.577215 -1.95827969,0 -3.5518985,-1.604977 -3.5518985,-3.577215 0,-1.972238 1.59361881,-3.577216 3.5518985,-3.577216 z"
     id="path87"
     style="stroke-width:1.18818" />
</svg>
