<?xml version="1.0" encoding="UTF-8" standalone="no"?>
<svg
   fill="#000000"
   viewBox="0 0 24 24"
   width="48px"
   height="48px"
   version="1.1"
   id="svg89"
   sodipodi:docname="icons8-instagram.svg"
   inkscape:version="1.1 (c68e22c387, 2021-05-23)"
   xmlns:inkscape="http://www.inkscape.org/namespaces/inkscape"
   xmlns:sodipodi="http://sodipodi.sourceforge.net/DTD/sodipodi-0.dtd"
   xmlns="http://www.w3.org/2000/svg"
   xmlns:svg="http://www.w3.org/2000/svg">
  <defs
     id="defs93" />
  <sodipodi:namedview
     id="namedview91"
     pagecolor="#ffffff"
     bordercolor="#666666"
     borderopacity="1.0"
     inkscape:pageshadow="2"
     inkscape:pageopacity="0.0"
     inkscape:pagecheckerboard="0"
     showgrid="false"
     inkscape:zoom="16.458333"
     inkscape:cx="24.03038"
     inkscape:cy="33.72152"
     inkscape:window-width="1920"
     inkscape:window-height="986"
     inkscape:window-x="-11"
     inkscape:window-y="-11"
     inkscape:window-maximized="1"
     inkscape:current-layer="svg89" />
  <path
     d="m 4.6278482,8.3468353 c -2.7570001,0 -5.00000002,2.2430007 -5.00000002,5.0000007 v 8.000001 c 0,2.757 2.24299992,5 5.00000002,5 h 8.0000008 c 2.757,0 5.000001,-2.243 5.000001,-5 v -8.000001 c 0,-2.757 -2.243001,-5.0000007 -5.000001,-5.0000007 z m 0,2.0000007 h 8.0000008 c 1.654,0 3,1.346 3,3 v 8.000001 c 0,1.654 -1.346,3 -3,3 H 4.6278482 c -1.6540001,0 -3,-1.346 -3,-3 v -8.000001 c 0,-1.654 1.3459999,-3 3,-3 z m 8.9999998,1 a 1,1 0 0 0 -0.999999,1 1,1 0 0 0 0.999999,1 1,1 0 0 0 1.000001,-1 1,1 0 0 0 -1.000001,-1 z m -4.9999996,1 c -2.757,0 -5.0000003,2.243001 -5.0000003,5.000001 0,2.757 2.2430003,5 5.0000003,5 2.7570006,0 4.9999996,-2.243 4.9999996,-5 0,-2.757 -2.242999,-5.000001 -4.9999996,-5.000001 z m 0,2.000001 c 1.6539996,0 3.0000006,1.346 3.0000006,3 0,1.654 -1.346001,3 -3.0000006,3 -1.654,0 -3.0000002,-1.346 -3.0000002,-3 0,-1.654 1.3460002,-3 3.0000002,-3 z"
     id="path87" />
</svg>
