<?xml version="1.0" encoding="UTF-8" standalone="no"?>
<svg
   fill="#000000"
   viewBox="0 0 24 24"
   width="48px"
   height="48px"
   version="1.1"
   id="svg89"
   sodipodi:docname="icons8-instagram.svg"
   inkscape:version="1.1 (c68e22c387, 2021-05-23)"
   xmlns:inkscape="http://www.inkscape.org/namespaces/inkscape"
   xmlns:sodipodi="http://sodipodi.sourceforge.net/DTD/sodipodi-0.dtd"
   xmlns="http://www.w3.org/2000/svg"
   xmlns:svg="http://www.w3.org/2000/svg">
  <defs
     id="defs93" />
  <sodipodi:namedview
     id="namedview91"
     pagecolor="#ffffff"
     bordercolor="#666666"
     borderopacity="1.0"
     inkscape:pageshadow="2"
     inkscape:pageopacity="0.0"
     inkscape:pagecheckerboard="0"
     showgrid="false"
     inkscape:zoom="16.458333"
     inkscape:cx="24.03038"
     inkscape:cy="24"
     inkscape:window-width="1920"
     inkscape:window-height="986"
     inkscape:window-x="-11"
     inkscape:window-y="-11"
     inkscape:window-maximized="1"
     inkscape:current-layer="svg89" />
  <path
     d="m -1.1443039,8.98481 c -2.757,0 -5,2.243 -5,5 v 8.000001 c 0,2.757 2.243,5 5,5 h 8.0000005 c 2.757001,0 5.0000014,-2.243 5.0000014,-5 V 13.98481 c 0,-2.757 -2.2430004,-5 -5.0000014,-5 z m 0,2 h 8.0000005 c 1.654001,0 3.000001,1.346 3.000001,3 v 8.000001 c 0,1.654 -1.346,3 -3.000001,3 h -8.0000005 c -1.654,0 -3,-1.346 -3,-3 V 13.98481 c 0,-1.654 1.346,-3 3,-3 z m 9.0000005,1 a 1,1 0 0 0 -1,1 1,1 0 0 0 1,1 1,1 0 0 0 1.000001,-1 1,1 0 0 0 -1.000001,-1 z m -5.0000003,1 c -2.75699996,0 -5.0000002,2.243001 -5.0000002,5.000001 0,2.757 2.24300024,5 5.0000002,5 2.7570003,0 5.0000003,-2.243 5.0000003,-5 0,-2.757 -2.243,-5.000001 -5.0000003,-5.000001 z m 0,2.000001 c 1.654,0 3.0000003,1.346 3.0000003,3 0,1.654 -1.3460003,3 -3.0000003,3 -1.654,0 -3.00000016,-1.346 -3.00000016,-3 0,-1.654 1.34600016,-3 3.00000016,-3 z"
     id="path87" />
</svg>
