<?xml version="1.0" encoding="UTF-8" standalone="no"?>
<svg
   fill="#000000"
   viewBox="0 0 24 24"
   width="48px"
   height="48px"
   version="1.1"
   id="svg89"
   sodipodi:docname="icons8-instagram.svg"
   inkscape:version="1.1 (c68e22c387, 2021-05-23)"
   xmlns:inkscape="http://www.inkscape.org/namespaces/inkscape"
   xmlns:sodipodi="http://sodipodi.sourceforge.net/DTD/sodipodi-0.dtd"
   xmlns="http://www.w3.org/2000/svg"
   xmlns:svg="http://www.w3.org/2000/svg">
  <defs
     id="defs93" />
  <sodipodi:namedview
     id="namedview91"
     pagecolor="#ffffff"
     bordercolor="#666666"
     borderopacity="1.0"
     inkscape:pageshadow="2"
     inkscape:pageopacity="0.0"
     inkscape:pagecheckerboard="0"
     showgrid="false"
     inkscape:zoom="16.458333"
     inkscape:cx="24.03038"
     inkscape:cy="24"
     inkscape:window-width="1920"
     inkscape:window-height="986"
     inkscape:window-x="-11"
     inkscape:window-y="-11"
     inkscape:window-maximized="1"
     inkscape:current-layer="svg89" />
  <path
     d="m 6.2767932,2.5746832 c -3.264195,0 -5.91983107,2.6745659 -5.91983107,5.9620271 v 9.5392417 c 0,3.28746 2.65563607,5.962025 5.91983107,5.962025 h 9.4717308 c 3.264195,0 5.919832,-2.674565 5.919832,-5.962025 V 8.5367103 c 0,-3.2874612 -2.655637,-5.9620271 -5.919832,-5.9620271 z m 0,2.3848109 h 9.4717308 c 1.95828,0 3.551899,1.6049778 3.551899,3.5772162 v 9.5392417 c 0,1.972238 -1.593619,3.577215 -3.551899,3.577215 H 6.2767932 c -1.9582802,0 -3.5518986,-1.604977 -3.5518986,-3.577215 V 8.5367103 c 0,-1.9722384 1.5936184,-3.5772162 3.5518986,-3.5772162 z M 16.932489,6.1518997 a 1.1839662,1.192405 0 0 0 -1.183965,1.1924056 1.1839662,1.192405 0 0 0 1.183965,1.192405 1.1839662,1.192405 0 0 0 1.183968,-1.192405 1.1839662,1.192405 0 0 0 -1.183968,-1.1924056 z m -5.919831,1.1924056 c -3.2641945,0 -5.9198311,2.6745657 -5.9198311,5.9620267 0,3.28746 2.6556366,5.962025 5.9198311,5.962025 3.264196,0 5.919831,-2.674565 5.919831,-5.962025 0,-3.287461 -2.655635,-5.9620267 -5.919831,-5.9620267 z m 0,2.3848112 c 1.95828,0 3.5519,1.6049775 3.5519,3.5772155 0,1.972238 -1.59362,3.577215 -3.5519,3.577215 -1.9582797,0 -3.5518985,-1.604977 -3.5518985,-3.577215 0,-1.972238 1.5936188,-3.5772155 3.5518985,-3.5772155 z"
     id="path87"
     style="stroke-width:1.18818" />
</svg>
